<svg xmlns="http://www.w3.org/2000/svg" xmlns:xlink="http://www.w3.org/1999/xlink" version="1.1" x="0px" y="0px" viewBox="0 0 1000 1250" style="enable-background:new 0 0 1000 1000;" xml:space="preserve"><g><g><path d="M508.5,220.8L703.4,76.2c0,0,189,72.9,159.9,305.8l-219.1,81.4C644.2,463.3,643.3,275.1,508.5,220.8z"/></g><g><path d="M264.4,418.8l-95.2,70.6c0,0-58.4,35.8-25.4,90.2c21.8,36,54.8,45.2,93.4,27.6l105.3-39.1    C356.7,454.4,264.4,418.8,264.4,418.8z M205.4,605.6c-13.1,8-35.5-4.6-50.1-28.2c-14.6-23.7-15.9-49.4-2.9-57.4    c13.1-8.1,35.5,4.6,50.1,28.2C217.1,571.8,218.4,597.5,205.4,605.6z"/></g><g><polygon points="533.7,546.8 530.3,550.6 528.5,548.8   "/></g><g><polygon points="574.6,531.6 578.8,685.5 578.4,684.9 573.9,531.9   "/><polygon points="790.8,822.4 723,897.2 602.4,720.1 597.5,538.4   "/></g><g><polygon points="585.4,921.2 495.2,923.8 488.2,686 356.6,906.2 284.5,835.5 435.2,583.4 484.6,565 528.5,548.8     530.3,550.6 533.7,546.8 573.9,531.9 578.4,684.9   "/></g><g><g><path d="M587.2,488.4l-36.5,13.6h0L500,520.8l-16.5,6.1l-18.6,6.9l-45.7,17c0,0-0.7-144.4-104.2-186.1l149.6-111     C464.6,253.7,609.6,309.7,587.2,488.4z"/></g></g></g><text x="0" y="1015" fill="#000000" font-size="5px" font-weight="bold" font-family="'Helvetica Neue', Helvetica, Arial-Unicode, Arial, Sans-serif">Created by sai aditya</text><text x="0" y="1020" fill="#000000" font-size="5px" font-weight="bold" font-family="'Helvetica Neue', Helvetica, Arial-Unicode, Arial, Sans-serif">from the Noun Project</text></svg>