<?xml version="1.0" encoding="utf-8"?>
<!-- Generator: Adobe Illustrator 19.0.0, SVG Export Plug-In . SVG Version: 6.00 Build 0)  -->
<svg version="1.1" xmlns="http://www.w3.org/2000/svg" xmlns:xlink="http://www.w3.org/1999/xlink" x="0px" y="0px"
	 viewBox="0 0 1270.9 776" style="enable-background:new 0 0 1270.9 776;" xml:space="preserve">
<style type="text/css">
	.st0{display:none;}
	.st1{display:inline;fill:#FFBE1D;}
	.st2{fill:#0A0B0F;}
	.st3{fill:#FFFFFF;}
	.st4{fill:#E2E2E2;}
	.st5{font-family:'BebasNeue';}
	.st6{font-size:184px;}
	.st7{fill:#434556;}
	.st8{fill:#AEAEB1;}
	.st9{fill:#F35663;}
	.st10{fill:#3C91F7;}
	.st11{font-size:247px;}
	.st12{fill:#969696;}
	.st13{fill:#353535;}
	.st14{font-size:94px;}
</style>
<g id="Layer_2" class="st0">
	<rect id="XMLID_184_" x="-227.5" y="-148.5" class="st1" width="1920" height="1080"/>
</g>
<g id="Monitor">
	<path id="screen" class="st2" d="M775.5,419.4c0,7.8-6.3,14.1-14.1,14.1H14.6c-7.8,0-14.1-6.3-14.1-14.1V16.6
		c0-7.8,6.3-14.1,14.1-14.1h746.7c7.8,0,14.1,6.3,14.1,14.1V419.4z"/>
	<path id="lower" class="st3" d="M761.9,432.5H12.7c-7,0-12.2-5.4-12.2-12.4v-49.6h774v49.6C774.5,427.1,768.8,432.5,761.9,432.5z"
		/>
	<rect id="stand-1" x="350.5" y="423.5" class="st3" width="74" height="79"/>
	<rect id="stand-2" x="277.5" y="495.5" class="st3" width="220" height="7"/>
	<circle id="XMLID_187_" class="st4" cx="387.4" cy="20.6" r="4.5"/>
	<text id="XMLID_251_" transform="matrix(1 0 0 1 137.2017 272.5168)" class="st5 st6">MONITOR</text>
</g>
<g id="CPU">
	<path id="cabin" class="st7" d="M1270.5,730.8c0,14.2-11.5,25.7-25.7,25.7h-236.6c-14.2,0-25.7-11.5-25.7-25.7V25.2
		c0-14.2,11.5-25.7,25.7-25.7h236.6c14.2,0,25.7,11.5,25.7,25.7V730.8z"/>
	<path id="slot3" class="st8" d="M1237.5,108.5c0,6.6-5.4,12-12,12h-198c-6.6,0-12-5.4-12-12v-45c0-6.6,5.4-12,12-12h198
		c6.6,0,12,5.4,12,12V108.5z"/>
	<path id="slot2" class="st8" d="M1237.5,201.5c0,6.6-5.4,12-12,12h-198c-6.6,0-12-5.4-12-12v-45c0-6.6,5.4-12,12-12h198
		c6.6,0,12,5.4,12,12V201.5z"/>
	<path id="slot1" class="st8" d="M1237.5,293.5c0,6.6-5.4,12-12,12h-198c-6.6,0-12-5.4-12-12v-45c0-6.6,5.4-12,12-12h198
		c6.6,0,12,5.4,12,12V293.5z"/>
	<circle id="power" class="st9" cx="1127.3" cy="512.8" r="45.7"/>
	<circle id="reset" class="st10" cx="1127.3" cy="601.8" r="23.2"/>
	<rect id="usb1" x="1028.5" y="707.5" class="st3" width="53" height="16"/>
	<rect id="usb2" x="1100.5" y="707.5" class="st3" width="53" height="16"/>
	<rect id="usb3" x="1173.5" y="707.5" class="st3" width="52" height="16"/>
	<text id="XMLID_188_" transform="matrix(1 0 0 1 1081.4542 271.0131)"><tspan x="0" y="0" class="st5 st11">C</tspan><tspan x="0" y="203" class="st5 st11">P</tspan><tspan x="0" y="406" class="st5 st11">U</tspan></text>
</g>
<g id="Keyboard">
	<path id="XMLID_197_" class="st4" d="M713.5,764.5c0,6.6-5.4,12-12,12h-681c-6.6,0-12-5.4-12-12v-210c0-6.6,5.4-12,12-12h681
		c6.6,0,12,5.4,12,12V764.5z"/>
	<path id="Keys_1_" class="st3" d="M63.5,622.8c0,2.1-1.7,3.8-3.8,3.8H27.2c-2.1,0-3.8-1.7-3.8-3.8v-25.5c0-2.1,1.7-3.8,3.8-3.8
		h32.5c2.1,0,3.8,1.7,3.8,3.8V622.8z M110.5,597.3c0-2.1-1.7-3.8-3.8-3.8H74.2c-2.1,0-3.8,1.7-3.8,3.8v25.5c0,2.1,1.7,3.8,3.8,3.8
		h32.5c2.1,0,3.8-1.7,3.8-3.8V597.3z M156.5,597.3c0-2.1-1.7-3.8-3.8-3.8h-32.5c-2.1,0-3.8,1.7-3.8,3.8v25.5c0,2.1,1.7,3.8,3.8,3.8
		h32.5c2.1,0,3.8-1.7,3.8-3.8V597.3z M203.5,597.3c0-2.1-1.7-3.8-3.8-3.8h-32.5c-2.1,0-3.8,1.7-3.8,3.8v25.5c0,2.1,1.7,3.8,3.8,3.8
		h32.5c2.1,0,3.8-1.7,3.8-3.8V597.3z M251.5,597.3c0-2.1-1.7-3.8-3.8-3.8h-32.5c-2.1,0-3.8,1.7-3.8,3.8v25.5c0,2.1,1.7,3.8,3.8,3.8
		h32.5c2.1,0,3.8-1.7,3.8-3.8V597.3z M298.5,597.3c0-2.1-1.7-3.8-3.8-3.8h-32.5c-2.1,0-3.8,1.7-3.8,3.8v25.5c0,2.1,1.7,3.8,3.8,3.8
		h32.5c2.1,0,3.8-1.7,3.8-3.8V597.3z M344.5,597.3c0-2.1-1.7-3.8-3.8-3.8h-32.5c-2.1,0-3.8,1.7-3.8,3.8v25.5c0,2.1,1.7,3.8,3.8,3.8
		h32.5c2.1,0,3.8-1.7,3.8-3.8V597.3z M391.5,597.3c0-2.1-1.7-3.8-3.8-3.8h-32.5c-2.1,0-3.8,1.7-3.8,3.8v25.5c0,2.1,1.7,3.8,3.8,3.8
		h32.5c2.1,0,3.8-1.7,3.8-3.8V597.3z M437.5,597.3c0-2.1-1.7-3.8-3.8-3.8h-32.5c-2.1,0-3.8,1.7-3.8,3.8v25.5c0,2.1,1.7,3.8,3.8,3.8
		h32.5c2.1,0,3.8-1.7,3.8-3.8V597.3z M484.5,597.3c0-2.1-1.7-3.8-3.8-3.8h-32.5c-2.1,0-3.8,1.7-3.8,3.8v25.5c0,2.1,1.7,3.8,3.8,3.8
		h32.5c2.1,0,3.8-1.7,3.8-3.8V597.3z M530.5,597.3c0-2.1-1.7-3.8-3.8-3.8h-32.5c-2.1,0-3.8,1.7-3.8,3.8v25.5c0,2.1,1.7,3.8,3.8,3.8
		h32.5c2.1,0,3.8-1.7,3.8-3.8V597.3z M577.5,597.3c0-2.1-1.7-3.8-3.8-3.8h-32.5c-2.1,0-3.8,1.7-3.8,3.8v25.5c0,2.1,1.7,3.8,3.8,3.8
		h32.5c2.1,0,3.8-1.7,3.8-3.8V597.3z M624.5,597.3c0-2.1-1.7-3.8-3.8-3.8h-32.5c-2.1,0-3.8,1.7-3.8,3.8v25.5c0,2.1,1.7,3.8,3.8,3.8
		h32.5c2.1,0,3.8-1.7,3.8-3.8V597.3z M697.5,597.3c0-2.1-1.7-3.8-3.8-3.8h-58.5c-2.1,0-3.8,1.7-3.8,3.8v25.5c0,2.1,1.7,3.8,3.8,3.8
		h58.5c2.1,0,3.8-1.7,3.8-3.8V597.3z M697.5,635.3c0-2.1-1.7-3.8-3.8-3.8h-32.5c-2.1,0-3.8,1.7-3.8,3.8v25.5c0,2.1,1.7,3.8,3.8,3.8
		h32.5c2.1,0,3.8-1.7,3.8-3.8V635.3z M650.5,635.3c0-2.1-1.7-3.8-3.8-3.8h-32.5c-2.1,0-3.8,1.7-3.8,3.8v25.5c0,2.1,1.7,3.8,3.8,3.8
		h32.5c2.1,0,3.8-1.7,3.8-3.8V635.3z M605.5,635.3c0-2.1-1.7-3.8-3.8-3.8h-32.5c-2.1,0-3.8,1.7-3.8,3.8v25.5c0,2.1,1.7,3.8,3.8,3.8
		h32.5c2.1,0,3.8-1.7,3.8-3.8V635.3z M558.5,635.3c0-2.1-1.7-3.8-3.8-3.8h-32.5c-2.1,0-3.8,1.7-3.8,3.8v25.5c0,2.1,1.7,3.8,3.8,3.8
		h32.5c2.1,0,3.8-1.7,3.8-3.8V635.3z M509.5,635.3c0-2.1-1.7-3.8-3.8-3.8h-32.5c-2.1,0-3.8,1.7-3.8,3.8v25.5c0,2.1,1.7,3.8,3.8,3.8
		h32.5c2.1,0,3.8-1.7,3.8-3.8V635.3z M462.5,635.3c0-2.1-1.7-3.8-3.8-3.8h-32.5c-2.1,0-3.8,1.7-3.8,3.8v25.5c0,2.1,1.7,3.8,3.8,3.8
		h32.5c2.1,0,3.8-1.7,3.8-3.8V635.3z M417.5,635.3c0-2.1-1.7-3.8-3.8-3.8h-32.5c-2.1,0-3.8,1.7-3.8,3.8v25.5c0,2.1,1.7,3.8,3.8,3.8
		h32.5c2.1,0,3.8-1.7,3.8-3.8V635.3z M370.5,635.3c0-2.1-1.7-3.8-3.8-3.8h-32.5c-2.1,0-3.8,1.7-3.8,3.8v25.5c0,2.1,1.7,3.8,3.8,3.8
		h32.5c2.1,0,3.8-1.7,3.8-3.8V635.3z M323.5,635.3c0-2.1-1.7-3.8-3.8-3.8h-32.5c-2.1,0-3.8,1.7-3.8,3.8v24.5c0,2.1,1.7,3.8,3.8,3.8
		h32.5c2.1,0,3.8-1.7,3.8-3.8V635.3z M276.5,635.3c0-2.1-1.7-3.8-3.8-3.8h-32.5c-2.1,0-3.8,1.7-3.8,3.8v24.5c0,2.1,1.7,3.8,3.8,3.8
		h32.5c2.1,0,3.8-1.7,3.8-3.8V635.3z M231.5,635.3c0-2.1-1.7-3.8-3.8-3.8h-32.5c-2.1,0-3.8,1.7-3.8,3.8v25.5c0,2.1,1.7,3.8,3.8,3.8
		h32.5c2.1,0,3.8-1.7,3.8-3.8V635.3z M184.5,635.3c0-2.1-1.7-3.8-3.8-3.8h-32.5c-2.1,0-3.8,1.7-3.8,3.8v25.5c0,2.1,1.7,3.8,3.8,3.8
		h32.5c2.1,0,3.8-1.7,3.8-3.8V635.3z M136.5,635.3c0-2.1-1.7-3.8-3.8-3.8h-32.5c-2.1,0-3.8,1.7-3.8,3.8v25.5c0,2.1,1.7,3.8,3.8,3.8
		h32.5c2.1,0,3.8-1.7,3.8-3.8V635.3z M89.5,635.3c0-2.1-1.7-3.8-3.8-3.8H27.2c-2.1,0-3.8,1.7-3.8,3.8v25.5c0,2.1,1.7,3.8,3.8,3.8
		h58.5c2.1,0,3.8-1.7,3.8-3.8V635.3z M697.5,674.3c0-2.1-1.7-3.8-3.8-3.8h-79.5c-2.1,0-3.8,1.7-3.8,3.8v25.5c0,2.1,1.7,3.8,3.8,3.8
		h79.5c2.1,0,3.8-1.7,3.8-3.8V674.3z M605.5,674.3c0-2.1-1.7-3.8-3.8-3.8h-32.5c-2.1,0-3.8,1.7-3.8,3.8v25.5c0,2.1,1.7,3.8,3.8,3.8
		h32.5c2.1,0,3.8-1.7,3.8-3.8V674.3z M558.5,674.3c0-2.1-1.7-3.8-3.8-3.8h-32.5c-2.1,0-3.8,1.7-3.8,3.8v25.5c0,2.1,1.7,3.8,3.8,3.8
		h32.5c2.1,0,3.8-1.7,3.8-3.8V674.3z M509.5,674.3c0-2.1-1.7-3.8-3.8-3.8h-32.5c-2.1,0-3.8,1.7-3.8,3.8v25.5c0,2.1,1.7,3.8,3.8,3.8
		h32.5c2.1,0,3.8-1.7,3.8-3.8V674.3z M462.5,674.3c0-2.1-1.7-3.8-3.8-3.8h-32.5c-2.1,0-3.8,1.7-3.8,3.8v25.5c0,2.1,1.7,3.8,3.8,3.8
		h32.5c2.1,0,3.8-1.7,3.8-3.8V674.3z M417.5,674.3c0-2.1-1.7-3.8-3.8-3.8h-32.5c-2.1,0-3.8,1.7-3.8,3.8v25.5c0,2.1,1.7,3.8,3.8,3.8
		h32.5c2.1,0,3.8-1.7,3.8-3.8V674.3z M370.5,674.3c0-2.1-1.7-3.8-3.8-3.8h-32.5c-2.1,0-3.8,1.7-3.8,3.8v25.5c0,2.1,1.7,3.8,3.8,3.8
		h32.5c2.1,0,3.8-1.7,3.8-3.8V674.3z M323.5,674.3c0-2.1-1.7-3.8-3.8-3.8h-32.5c-2.1,0-3.8,1.7-3.8,3.8v24.5c0,2.1,1.7,3.8,3.8,3.8
		h32.5c2.1,0,3.8-1.7,3.8-3.8V674.3z M276.5,674.3c0-2.1-1.7-3.8-3.8-3.8h-32.5c-2.1,0-3.8,1.7-3.8,3.8v24.5c0,2.1,1.7,3.8,3.8,3.8
		h32.5c2.1,0,3.8-1.7,3.8-3.8V674.3z M231.5,674.3c0-2.1-1.7-3.8-3.8-3.8h-32.5c-2.1,0-3.8,1.7-3.8,3.8v25.5c0,2.1,1.7,3.8,3.8,3.8
		h32.5c2.1,0,3.8-1.7,3.8-3.8V674.3z M184.5,674.3c0-2.1-1.7-3.8-3.8-3.8h-32.5c-2.1,0-3.8,1.7-3.8,3.8v25.5c0,2.1,1.7,3.8,3.8,3.8
		h32.5c2.1,0,3.8-1.7,3.8-3.8V674.3z M136.5,674.3c0-2.1-1.7-3.8-3.8-3.8h-32.5c-2.1,0-3.8,1.7-3.8,3.8v25.5c0,2.1,1.7,3.8,3.8,3.8
		h32.5c2.1,0,3.8-1.7,3.8-3.8V674.3z M89.5,674.3c0-2.1-1.7-3.8-3.8-3.8H27.2c-2.1,0-3.8,1.7-3.8,3.8v25.5c0,2.1,1.7,3.8,3.8,3.8
		h58.5c2.1,0,3.8-1.7,3.8-3.8V674.3z M697.5,714.3c0-2.1-1.7-3.8-3.8-3.8h-79.5c-2.1,0-3.8,1.7-3.8,3.8v25.5c0,2.1,1.7,3.8,3.8,3.8
		h79.5c2.1,0,3.8-1.7,3.8-3.8V714.3z M605.5,714.3c0-2.1-1.7-3.8-3.8-3.8h-32.5c-2.1,0-3.8,1.7-3.8,3.8v25.5c0,2.1,1.7,3.8,3.8,3.8
		h32.5c2.1,0,3.8-1.7,3.8-3.8V714.3z M558.5,714.3c0-2.1-1.7-3.8-3.8-3.8h-32.5c-2.1,0-3.8,1.7-3.8,3.8v25.5c0,2.1,1.7,3.8,3.8,3.8
		h32.5c2.1,0,3.8-1.7,3.8-3.8V714.3z M509.5,714.3c0-2.1-1.7-3.8-3.8-3.8h-32.5c-2.1,0-3.8,1.7-3.8,3.8v25.5c0,2.1,1.7,3.8,3.8,3.8
		h32.5c2.1,0,3.8-1.7,3.8-3.8V714.3z M462.5,714.3c0-2.1-1.7-3.8-3.8-3.8h-32.5c-2.1,0-3.8,1.7-3.8,3.8v25.5c0,2.1,1.7,3.8,3.8,3.8
		h32.5c2.1,0,3.8-1.7,3.8-3.8V714.3z M417.5,714.3c0-2.1-1.7-3.8-3.8-3.8H167.2c-2.1,0-3.8,1.7-3.8,3.8v25.5c0,2.1,1.7,3.8,3.8,3.8
		h246.5c2.1,0,3.8-1.7,3.8-3.8V714.3z M156.5,714.3c0-2.1-1.7-3.8-3.8-3.8h-32.5c-2.1,0-3.8,1.7-3.8,3.8v25.5c0,2.1,1.7,3.8,3.8,3.8
		h32.5c2.1,0,3.8-1.7,3.8-3.8V714.3z M110.5,714.3c0-2.1-1.7-3.8-3.8-3.8H74.2c-2.1,0-3.8,1.7-3.8,3.8v25.5c0,2.1,1.7,3.8,3.8,3.8
		h32.5c2.1,0,3.8-1.7,3.8-3.8V714.3z M63.5,714.3c0-2.1-1.7-3.8-3.8-3.8H27.2c-2.1,0-3.8,1.7-3.8,3.8v25.5c0,2.1,1.7,3.8,3.8,3.8
		h32.5c2.1,0,3.8-1.7,3.8-3.8V714.3z"/>
	<text id="XMLID_186_" transform="matrix(1 0 0 1 70.4546 727.0136)" class="st5 st6">KEYBOARD</text>
</g>
<g id="Mouse">
	<path id="mouse" class="st4" d="M879.5,711.3c0,21.6-17.5,39.2-39.2,39.2h-22.7c-21.6,0-39.2-17.5-39.2-39.2v-78.7
		c0-21.6,17.5-39.2,39.2-39.2h22.7c21.6,0,39.2,17.5,39.2,39.2V711.3z"/>
	<path id="mouse-shadow" class="st12" d="M840.2,750.5h-12.7v-157H840c21.7,0,39.4,18.1,39.4,39.9v77.7
		C879.5,732.7,861.8,750.5,840.2,750.5z"/>
	<path id="wheel" class="st13" d="M831.5,630.5c0,2.8-2.2,5-5,5l0,0c-2.8,0-5-2.2-5-5v-15c0-2.8,2.2-5,5-5l0,0c2.8,0,5,2.2,5,5
		V630.5z"/>
	<text id="XMLID_189_" transform="matrix(1 0 0 1 756.457 558.5931)" class="st3 st5 st14">Mouse</text>
</g>
</svg>
