<svg xmlns="http://www.w3.org/2000/svg" xmlns:xlink="http://www.w3.org/1999/xlink" viewBox="0 0 59 73.75" version="1.1" x="0px" y="0px"><title>7 -Planet Orbit- (space, astronomy)</title><desc>Created with Sketch.</desc><g stroke="none" stroke-width="1" fill="none" fill-rule="evenodd"><g transform="translate(-866.000000, -383.000000)" fill="#000000"><g transform="translate(866.000000, 383.000000)"><path d="M53.8701,22 C53.9391,22 54.0001,21.99 54.0691,21.98 C54.1301,21.97 54.1891,21.95 54.2601,21.92 C54.3091,21.9 54.3701,21.87 54.4301,21.83 C54.4791,21.8 54.5301,21.75 54.5801,21.71 C54.6701,21.62 54.7401,21.51 54.8001,21.38 C54.8491,21.26 54.8701,21.13 54.8701,21 C54.8701,20.901 54.8441,20.806 54.8171,20.711 C55.8541,19.657 56.6871,18.4 57.2361,17 L50.0001,17 C49.4471,17 49.0001,16.552 49.0001,16 C49.0001,15.448 49.4471,15 50.0001,15 L57.8091,15 C57.9291,14.35 58.0001,13.684 58.0001,13 C58.0001,12.662 57.9791,12.33 57.9491,12 L53.0001,12 C52.4471,12 52.0001,11.552 52.0001,11 C52.0001,10.448 52.4471,10 53.0001,10 L57.5731,10 C56.2631,5.39 52.0241,2 47.0001,2 C44.1491,2 41.5541,3.097 39.5991,4.884 C39.5321,4.831 39.4681,4.773 39.3901,4.74 C39.0191,4.59 38.5691,4.68 38.3001,4.96 C38.1091,5.15 38.0001,5.4 38.0001,5.67 C38.0001,5.917 38.1041,6.16 38.2781,6.347 C38.1131,6.563 37.9411,6.773 37.7921,7 L49.0001,7 C49.5531,7 50.0001,7.448 50.0001,8 C50.0001,8.552 49.5531,9 49.0001,9 L36.7641,9 C36.3931,9.945 36.1461,10.95 36.0511,12 L43.0001,12 C43.5531,12 44.0001,12.448 44.0001,13 C44.0001,13.552 43.5531,14 43.0001,14 L36.0511,14 C36.1801,15.43 36.5881,16.779 37.2141,18 L47.0001,18 C47.5531,18 48.0001,18.448 48.0001,19 C48.0001,19.552 47.5531,20 47.0001,20 L38.5211,20 C40.5411,22.441 43.5911,24 47.0001,24 C49.4101,24 51.6351,23.215 53.4471,21.894 C53.5801,21.957 53.7221,22 53.8701,22"/><path d="M55.8096,26.4399 C55.9296,26.4399 56.0396,26.4199 56.1496,26.3799 C56.6696,26.1999 56.9396,25.6199 56.7596,25.0999 L56.7496,25.0999 C56.5696,24.5799 55.9906,24.3199 55.4796,24.4999 C54.9596,24.6899 54.6896,25.2599 54.8796,25.7799 L54.8706,25.7799 C55.0196,26.1899 55.3996,26.4399 55.8096,26.4399"/><path d="M56.8701,34.98 L56.8801,34.98 C56.9201,35.5 57.3591,35.9 57.8701,35.9 L57.9501,35.9 C58.5001,35.85 58.9101,35.37 58.8701,34.82 C58.8191,34.27 58.3401,33.86 57.7901,33.9 C57.2401,33.95 56.8301,34.43 56.8701,34.98"/><path d="M56.9395,29.1299 C56.3995,29.2399 56.0595,29.7699 56.1795,30.3099 C56.2805,30.7799 56.6895,31.0999 57.1495,31.0999 C57.2195,31.0999 57.2995,31.0999 57.3705,31.0799 C57.9105,30.9599 58.2505,30.4299 58.1295,29.8899 C58.0095,29.3499 57.4795,29.0099 56.9395,29.1299"/><path d="M54.7998,52.8599 C54.3098,52.6199 53.7098,52.8299 53.4698,53.3199 C53.2298,53.8299 53.4398,54.4199 53.9398,54.6599 C54.0798,54.7299 54.2298,54.7599 54.3698,54.7599 C54.7398,54.7599 55.0998,54.5499 55.2698,54.1899 C55.5098,53.6899 55.2998,53.0999 54.7998,52.8599"/><path d="M56.4902,48.3101 C55.9692,48.1401 55.3992,48.4201 55.2292,48.9501 C55.0592,49.4701 55.3402,50.0401 55.8702,50.2101 C55.9692,50.2401 56.0802,50.2601 56.1792,50.2601 C56.5992,50.2601 56.9902,49.9901 57.1302,49.5701 C57.3002,49.0501 57.0192,48.4801 56.4902,48.3101"/><path d="M58.9502,39.7998 C58.9792,39.2498 58.5592,38.7798 58.0102,38.7498 C57.4502,38.7198 56.9902,39.1498 56.9602,39.6998 C56.9292,40.2498 57.3492,40.7198 57.9102,40.7498 L57.9502,40.7498 C58.4792,40.7498 58.9292,40.3298 58.9602,39.7998 L58.9502,39.7998 Z"/><path d="M57.5693,43.5796 C57.0303,43.4796 56.5093,43.8396 56.4103,44.3796 C56.2993,44.9196 56.6603,45.4396 57.2103,45.5496 C57.2693,45.5596 57.3303,45.5596 57.3893,45.5596 C57.8593,45.5596 58.2803,45.2296 58.3703,44.7496 C58.4793,44.1996 58.1203,43.6796 57.5693,43.5796"/><path d="M51.6201,57.0796 C51.5001,57.1296 51.3901,57.1996 51.2901,57.2896 C51.1091,57.4796 51.0001,57.7396 51.0001,57.9996 C51.0001,58.2596 51.1091,58.5196 51.2901,58.7096 C51.3901,58.7996 51.5001,58.8696 51.6201,58.9196 C51.7401,58.9696 51.8701,58.9996 52.0001,58.9996 C52.2601,58.9996 52.5191,58.8896 52.7101,58.7096 C52.8901,58.5196 53.0001,58.2596 53.0001,57.9996 C53.0001,57.7396 52.8901,57.4796 52.7101,57.2896 C52.4301,57.0096 51.9791,56.9196 51.6201,57.0796"/><path d="M0.4395,7.8296 C0.5005,7.8696 0.5595,7.8996 0.6205,7.9196 C0.6795,7.9496 0.7405,7.9696 0.7995,7.9796 C0.8705,7.9896 0.9295,7.9996 1.0005,7.9996 C1.2595,7.9996 1.5195,7.8896 1.7105,7.7096 C1.8895,7.5196 2.0005,7.2596 2.0005,6.9996 C2.0005,6.9396 1.9905,6.8696 1.9795,6.7996 C1.9695,6.7396 1.9505,6.6796 1.9195,6.6196 C1.8995,6.5596 1.8705,6.4996 1.8305,6.4396 C1.7905,6.3896 1.7505,6.3396 1.7105,6.2896 C1.4695,6.0596 1.1295,5.9596 0.7995,6.0196 C0.7405,6.0296 0.6795,6.0496 0.6205,6.0796 C0.5595,6.0996 0.5005,6.1296 0.4395,6.1696 L0.2905,6.2896 C0.2505,6.3396 0.2005,6.3896 0.1695,6.4396 C0.1295,6.4996 0.0995,6.5596 0.0805,6.6196 C0.0495,6.6796 0.0305,6.7396 0.0195,6.7996 C0.0095,6.8696 0.0005,6.9396 0.0005,6.9996 C0.0005,7.2596 0.1095,7.5196 0.2905,7.7096 C0.3395,7.7496 0.3895,7.7996 0.4395,7.8296"/><path d="M29.4795,3 C29.5595,3.02 29.6395,3.03 29.7195,3.03 C30.1695,3.03 30.5805,2.73 30.6895,2.27 C30.8195,1.73 30.4905,1.19 29.9595,1.06 L29.9505,1.06 C29.4195,0.93 28.8795,1.26 28.7505,1.8 C28.6205,2.33 28.9505,2.88 29.4795,3"/><path d="M34.1201,4.46 C34.2401,4.51 34.3591,4.53 34.4791,4.53 C34.8801,4.53 35.2601,4.29 35.4101,3.9 C35.6091,3.38 35.3591,2.8 34.8401,2.6 C34.3301,2.4 33.7501,2.65 33.5501,3.17 C33.3491,3.68 33.5991,4.26 34.1201,4.46"/><path d="M24.7002,2.1899 L24.8002,2.1899 C25.3092,2.1899 25.7402,1.8099 25.7902,1.2899 C25.8492,0.7399 25.4502,0.2499 24.8992,0.1999 C24.3492,0.1399 23.8592,0.5399 23.8002,1.0899 C23.7502,1.6399 24.1492,2.1299 24.7002,2.1899"/><path d="M5.3594,5.5698 C5.5094,5.5698 5.6494,5.5398 5.7904,5.4798 C6.2904,5.2398 6.5004,4.6398 6.2594,4.1398 C6.0304,3.6498 5.4294,3.4298 4.9294,3.6698 C4.4294,3.9098 4.2194,4.4998 4.4604,4.9998 C4.6304,5.3598 4.9904,5.5698 5.3594,5.5698"/><path d="M19.8096,2.02 L19.8396,2.02 C20.3996,2 20.8306,1.54 20.8096,0.99 C20.7896,0.43 20.3306,0 19.7806,0.02 C19.2196,0.04 18.7896,0.5 18.8096,1.05 C18.8306,1.6 19.2696,2.02 19.8096,2.02"/><path d="M14.8496,2.54 C14.8996,2.54 14.9596,2.53 15.0196,2.52 C15.5596,2.43 15.9296,1.91 15.8296,1.36 C15.7296,0.82 15.2196,0.46 14.6696,0.55 C14.1296,0.65 13.7596,1.16 13.8596,1.71 C13.9506,2.19 14.3706,2.54 14.8496,2.54"/><path d="M10,3.73 C10.1,3.73 10.2,3.72 10.31,3.69 C10.83,3.52 11.12,2.95 10.95,2.43 C10.78,1.9 10.22,1.61 9.689,1.78 C9.17,1.95 8.88,2.51 9.05,3.04 C9.18,3.46 9.58,3.73 10,3.73"/><path d="M14.0029,26.9419 C14.5829,26.6609 15.1449,26.2579 15.7389,25.8309 C16.9319,24.9759 18.2819,24.0069 19.9969,24.0069 C20.0059,24.0069 20.0199,24.0099 20.0239,24.0069 C20.3379,24.0069 21.3259,23.5829 21.9159,23.3299 C23.3369,22.7179 24.2759,22.3149 25.0069,22.7969 C25.9649,23.4279 26.4119,24.5739 26.2339,25.9419 C26.0449,27.4009 25.0919,29.2039 23.6989,29.6719 C22.9409,29.9289 22.1699,29.7349 21.5879,29.1439 C21.3969,28.9529 21.2659,28.8949 21.2319,28.8889 C21.2429,28.9299 21.1779,29.1909 21.2179,29.2889 C21.8319,29.9379 22.0789,30.9859 21.8359,31.9889 C21.6109,32.9169 20.9939,33.6429 20.1849,33.9319 C19.3459,34.2319 18.2739,33.7439 17.0329,33.1789 C16.8619,33.1009 16.6609,33.0099 16.4609,32.9219 C16.6559,33.9849 16.3199,34.9339 15.9579,35.6509 C16.0749,35.6249 16.2029,35.5949 16.3429,35.5619 C18.6899,34.9969 19.2119,36.4359 19.4609,37.1269 C19.5809,37.4569 19.6619,37.6649 19.8139,37.7809 C20.5959,38.3819 20.5949,38.3799 22.1979,37.6379 L22.3679,37.5599 C23.1599,37.1979 24.0659,36.8849 24.8169,37.2829 C25.5279,37.6609 25.6529,38.3979 25.7429,38.9369 C25.7949,39.2479 25.8449,39.5419 25.9729,39.7359 C26.7419,40.8999 28.3079,42.0999 29.5999,42.0999 L29.6119,42.0999 C30.2339,42.0959 30.7349,41.8019 31.1409,41.1999 C31.1789,41.0569 31.2259,40.7079 31.2609,40.4479 C31.4369,39.1379 31.6559,37.5069 32.9379,37.0919 C33.9409,36.7689 34.8869,37.4949 35.4179,37.9999 L37.8929,37.9999 C36.8899,28.4599 28.8009,20.9999 18.9999,20.9999 C17.5239,20.9999 16.0929,21.1859 14.7129,21.5059 L13.9469,23.3469 C13.7479,24.2659 13.3239,24.9799 12.9049,25.6329 C12.6369,26.0499 12.7829,26.4699 13.0079,26.7239 C13.1099,26.8389 13.4829,27.1959 14.0029,26.9419"/><path d="M34.2749,39.6885 C33.9409,39.3365 33.7119,39.1655 33.5759,39.0835 C33.4109,39.4675 33.2959,40.3175 33.2429,40.7145 C33.1499,41.4125 33.0879,41.8735 32.8589,42.2275 C31.8679,43.7655 30.5519,44.0945 29.6239,44.1005 L29.5989,44.1005 C27.4429,44.1005 25.3449,42.4125 24.3039,40.8375 C23.9429,40.2905 23.8429,39.6995 23.7709,39.2685 C23.7649,39.2335 23.7589,39.1965 23.7529,39.1585 C23.6249,39.1995 23.4449,39.2665 23.2029,39.3765 L23.0379,39.4535 C20.8529,40.4645 20.2719,40.6545 18.5949,39.3675 C17.9729,38.8885 17.7459,38.2635 17.5809,37.8075 C17.5339,37.6765 17.4629,37.4815 17.4179,37.4155 C17.4059,37.4285 17.2299,37.4055 16.8089,37.5065 C15.1629,37.8995 14.1229,38.0845 13.5689,37.3305 C13.0629,36.6425 13.4919,35.9225 13.8369,35.3445 C14.3379,34.5035 14.7259,33.7425 14.3949,32.9525 C14.2569,32.6275 13.8359,31.6295 14.5339,30.9505 C15.3069,30.1975 16.4349,30.7095 17.8619,31.3585 C18.3819,31.5965 19.2359,31.9845 19.5699,32.0215 C19.7159,31.9395 19.8339,31.7565 19.8919,31.5175 C19.9749,31.1775 19.9069,30.8075 19.7289,30.6165 C18.8889,29.7165 19.1419,28.1925 19.9299,27.4305 C20.5799,26.8015 21.7769,26.5035 23.0079,27.7355 C23.2679,27.7585 23.9279,27.0745 24.1849,26.0315 C24.2449,25.7885 24.3929,25.0425 24.0759,24.6255 C23.7339,24.7255 23.1309,24.9835 22.7049,25.1675 C21.6939,25.6015 20.7479,25.9945 20.0099,26.0065 L19.9969,26.0065 C18.9249,26.0065 17.9439,26.7105 16.9049,27.4565 C16.2679,27.9135 15.6079,28.3865 14.8739,28.7415 C13.7069,29.3075 12.3859,29.0365 11.5119,28.0515 C10.6319,27.0605 10.5149,25.6545 11.2209,24.5535 C11.5649,24.0175 11.8839,23.4845 12.0049,22.8595 L12.0639,22.6675 L12.2289,22.2695 C5.0909,25.0055 -0.0001,31.9105 -0.0001,40.0005 C-0.0001,43.0375 0.7339,45.8995 2.0069,48.4485 L3.3309,47.2565 L5.2929,45.2925 C5.3689,45.2165 5.4569,45.1535 5.5529,45.1055 L7.5529,44.1055 C7.6179,44.0725 7.6869,44.0475 7.7569,44.0295 L11.7569,43.0295 C12.0209,42.9625 12.3009,43.0085 12.5319,43.1535 L14.0409,44.1025 L16.1999,45.0005 L18.9999,45.0005 C19.1079,45.0005 19.2139,45.0175 19.3169,45.0515 L22.3169,46.0515 C22.7249,46.1875 22.9999,46.5695 22.9999,47.0005 L22.9999,49.0005 L26.9999,49.0005 C27.3209,49.0005 27.6229,49.1545 27.8109,49.4155 C27.9989,49.6765 28.0499,50.0115 27.9489,50.3165 L26.9489,53.3165 C26.8999,53.4635 26.8169,53.5975 26.7069,53.7075 L24.9999,55.4145 L24.9999,58.0135 C32.5419,55.4945 37.9999,48.3785 37.9999,40.0005 L34.5699,40.0005 L34.2749,39.6885 Z"/><path d="M25.6128,51 L21.9998,51 C21.4478,51 20.9998,50.552 20.9998,50 L20.9998,47.721 L18.8378,47 L15.9998,47 C15.8678,47 15.7378,46.974 15.6158,46.923 L13.1958,45.917 C13.1438,45.895 13.0938,45.869 13.0468,45.84 L11.8288,45.074 L8.3488,45.943 L6.5918,46.822 L4.7068,48.707 L3.0148,50.23 C6.3968,55.495 12.2908,59 18.9998,59 C20.3728,59 21.7088,58.846 22.9998,58.568 L22.9998,55 C22.9998,54.735 23.1058,54.48 23.2928,54.293 L25.1258,52.46 L25.6128,51 Z"/></g></g></g><text x="0" y="74" fill="#000000" font-size="5px" font-weight="bold" font-family="'Helvetica Neue', Helvetica, Arial-Unicode, Arial, Sans-serif">Created by Ben Davis</text><text x="0" y="79" fill="#000000" font-size="5px" font-weight="bold" font-family="'Helvetica Neue', Helvetica, Arial-Unicode, Arial, Sans-serif">from the Noun Project</text></svg>