<?xml version="1.0" encoding="utf-8"?>
<!-- Generator: Adobe Illustrator 19.0.0, SVG Export Plug-In . SVG Version: 6.00 Build 0)  -->
<svg version="1.1" id="Слой_2" xmlns="http://www.w3.org/2000/svg" xmlns:xlink="http://www.w3.org/1999/xlink" x="0px" y="0px"
	 viewBox="610 -18.8 1000 1000" style="enable-background:new 610 -18.8 1000 1000;" xml:space="preserve">
<path d="M1652.9,751.6h-164.2l-1.6-53.5h5.9v-9.3h-6.2l-2.3-75.2h5.1v-7.1h-5.4l-2.6-85.9h4.2v-5.4h-4.3l-0.7-24.3v-0.1h5.1v-2.4
	h-4.9c0-0.1,0-0.1,0-0.2c0-9.7-5.7-17.6-12.9-18.4c0-0.2,0-0.6,0-0.7c0-9.3-0.6-16.8-1.3-16.8c-0.6,0-1.3,7.5-1.3,16.8
	c0,0.2,0,0.6,0,0.7c-7.1,0.9-12.7,8.8-12.7,18.4c0,0.1,0,0.1,0,0.2h-4.9v2.2h5.1c0,0.1,0,0.1,0,0.1l-0.7,24.3h-4.3v5.4h4.2
	l-2.6,85.9h-5.4v7.1h5.1l-2.3,75.2h-6.2v9.3h5.9l-1.6,53.5h-28.3V518.3h-0.7v-44h4.3l-6.1-10.4l-6.1,10.4h3.9v44h-12.5v-72.9h3.6
	l-6.1-10.4l-6.1,10.4h3.2v72.9h-26.4v-32h3.3l-6.1-10.4l-6.1,10.4h3.3v32h-9v-14.5h-2.2v-38.7h3l-6.1-10.4l-6.1,10.4h3v38.7h-18.4
	v-53.5h-3.6c0.2-2.3,0.4-4.6,0.4-6.8c0-23-29.4-40.4-39.4-45.7c0-0.3,0-0.6,0-0.9c0-18-1.3-32.5-2.7-32.5c-1.5,0-2.7,14.6-2.7,32.5
	c0,0.1,0,0.2,0,0.3c-8.1,4.2-36.7,20.2-40.1,42v-18.3c5.9-17.5,9.1-36.5,9.1-56.6c0-47.4-40.6-85.5-77.1-110.3l3.2-6.5
	c0,0-4.3-3.9-10.6-5.4c-6.3-1.5-24.5-15.9-31.3-22.6c-4.6-4.6-11-13.4-14.6-18.6c1.3-0.9,2.3-2.3,2.3-3.9c0-2.3-2-4.3-4.6-4.8V190
	c3.5-0.7,6-3.6,6-8.3c0-3.6-3.6-12.9-5.9-18.4c1.9-0.9,3.2-2.9,3.2-5.4c0-2.5-1.3-4.6-3.3-5.5v-22.2h-3.6v22.5
	c-1.9,0.9-3.2,2.9-3.2,5.4s1.3,4.5,3.2,5.4v0.2c-2.3,5.5-5.8,14.6-5.8,18.4c0,4.6,2.4,7.4,5.8,8.1v2.4c-2.6,0.6-4.5,2.5-4.5,4.8
	c0,1.6,0.9,2.9,2.3,3.9c-3.6,5.1-10,13.9-14.7,18.6c-6.7,6.7-25.1,21.2-31.3,22.6c-6.2,1.4-10.6,5.4-10.6,5.4l3.2,6.5
	c-36.5,24.8-77.1,62.9-77.1,110.3c0,19.9,3.2,39,9.1,56.5v18.4c-3.5-21.8-32-37.8-40.1-42c0-0.1,0-0.2,0-0.3c0-18-1.3-32.5-2.7-32.5
	c-1.4,0-2.7,14.6-2.7,32.5c0,0.3,0,0.6,0,0.9c-10,5.2-39.4,22.6-39.4,45.7c0,2.3,0.1,4.6,0.4,6.8h-3.2v53.3h-18.4v-38.7h2.9
	l-6.1-10.4l-6.1,10.4h2.9v38.7h-2.4v14.5h-9v-32h3.3l-6.1-10.4l-6.1,10.4h3.3v32h-26.4v-72.9h3.2l-6.1-10.4l-6.1,10.4h3.6v72.9
	h-12.7v-44h3.9l-6.1-10.4l-6.1,10.4h4.3v44h-0.7v233.3h-28.3l-1.6-53.5h5.9v-9.3H779l-2.3-75.2h5.1v-7.1h-5.4l-2.5-85.9h4.2v-5.4
	h-4.4l-0.7-24.3v-0.1h5.1v-2.3h-4.9c0-0.1,0-0.1,0-0.2c0-9.6-5.5-17.5-12.7-18.4c0-0.2,0-0.6,0-0.7c0-9.3-0.6-16.8-1.3-16.8
	c-0.6,0-1.3,7.5-1.3,16.8c0,0.2,0,0.6,0,0.7c-7.2,0.7-12.9,8.7-12.9,18.4c0,0.1,0,0.1,0,0.2h-4.8v2.2h5.1c0,0.1,0,0.1,0,0.1
	l-0.7,24.3h-4.3v5.4h4.2l-2.6,85.9h-5.4v7.1h5.1l-2.3,75.2h-6.2v9.3h5.9l-1.6,53.5H573.2 M734.8,751.7H725v96.1h372.4h37.2H1507
	v-96.3h-9.8 M748.6,511.8h-1.9v-12l0,0c0-2.4,0.4-4.3,0.9-4.3c0.6,0,0.9,1.9,0.9,4.3l0,0V511.8L748.6,511.8z M758,511.8h-6.5v-12
	l0,0c0.1-2.3,1.5-4.2,3.2-4.2c1.7,0,3.2,1.9,3.2,4.2l0,0V511.8L758,511.8z M767.7,511.8h-6.4v-12l0,0c0.1-2.3,1.5-4.2,3.2-4.2
	c1.8,0,3.2,1.9,3.2,4.2l0,0L767.7,511.8L767.7,511.8z M772.6,511.8h-2v-12l0,0c0-2.4,0.4-4.3,0.9-4.3c0.6,0,0.9,1.9,0.9,4.3l0,0
	L772.6,511.8L772.6,511.8z M865.8,755.1h-42.9v-63.2l0,0c0.6-15.3,21.4-27.5,21.4-27.5s20.7,12.3,21.4,27.5l0,0L865.8,755.1
	L865.8,755.1z M865.8,639.6h-42.9v-63.2l0,0c0.6-15.3,21.4-27.5,21.4-27.5s20.7,12.3,21.4,27.5l0,0L865.8,639.6L865.8,639.6z
	 M930.8,483.2L930.8,483.2c0-0.1,0-0.1,0-0.2c0-5.1,11.9-9.3,11.9-9.3s11.9,4.1,11.9,9.3c0,0.1,0,0.1,0,0.2l0,0v22h-24L930.8,483.2
	L930.8,483.2z M906.1,483.3L906.1,483.3c0-0.1,0-0.1,0-0.2c0-5.1,7.8-9.1,7.8-9.1s7.8,4.1,7.8,9.1c0,0.1,0,0.1,0,0.2l0,0v21.8h-15.5
	V483.3L906.1,483.3z M964.7,754.8h-61.4v-62.9l0,0c0.9-15.2,30.6-27.4,30.6-27.4s29.7,12.3,30.7,27.4l0,0L964.7,754.8L964.7,754.8z
	 M964.7,639.2h-61.4v-62.9l0,0c0.9-15.2,30.6-27.4,30.6-27.4s29.7,12.3,30.7,27.4l0,0L964.7,639.2L964.7,639.2z M979.5,483.3v21.8
	H964v-21.8l0,0c0-0.1,0-0.1,0-0.2c0-5.1,7.8-9.1,7.8-9.1s7.8,4.1,7.8,9.1C979.5,483.2,979.5,483.2,979.5,483.3L979.5,483.3z
	 M1186.4,593.4v158h-143v-158l0,0c0-33.8,71.5-61.2,71.5-61.2S1186.4,559.6,1186.4,593.4L1186.4,593.4z M1304.6,483.3L1304.6,483.3
	c0-0.1,0-0.1,0-0.2c0-5.1,7.8-9.1,7.8-9.1s7.8,4.1,7.8,9.1c0,0.1,0,0.1,0,0.2l0,0v21.8h-15.5V483.3L1304.6,483.3z M1271.5,483.2
	L1271.5,483.2c0-0.1,0-0.1,0-0.2c0-5.1,11.9-9.3,11.9-9.3s11.9,4.1,11.9,9.3c0,0.1,0,0.1,0,0.2l0,0v22h-24L1271.5,483.2
	L1271.5,483.2z M1246.8,483.3L1246.8,483.3c0-0.1,0-0.1,0-0.2c0-5.1,7.8-9.1,7.8-9.1s7.8,4.1,7.8,9.1c0,0.1,0,0.1,0,0.2l0,0v21.8
	h-15.5V483.3L1246.8,483.3z M1323,754.8h-61.4v-62.9l0,0c0.9-15.2,30.6-27.4,30.6-27.4s29.7,12.3,30.6,27.4l0,0v62.9H1323z
	 M1323,639.2h-61.4v-62.9l0,0c0.9-15.2,30.6-27.4,30.6-27.4s29.7,12.3,30.6,27.4l0,0v62.9H1323z M1403.3,755.1h-42.9v-63.2l0,0
	c0.6-15.3,21.4-27.5,21.4-27.5s20.7,12.3,21.4,27.5l0,0L1403.3,755.1L1403.3,755.1z M1403.3,639.6h-42.9v-63.2l0,0
	c0.6-15.3,21.4-27.5,21.4-27.5s20.7,12.3,21.4,27.5l0,0L1403.3,639.6L1403.3,639.6z M1455.5,511.8h-2v-12l0,0c0-2.4,0.4-4.3,0.9-4.3
	s0.9,1.9,0.9,4.3l0,0L1455.5,511.8L1455.5,511.8z M1465,511.8h-6.5v-12l0,0c0.1-2.3,1.5-4.2,3.2-4.2c1.7,0,3.2,1.9,3.2,4.2l0,0
	V511.8L1465,511.8z M1474.8,511.8h-6.5v-12l0,0c0.1-2.3,1.5-4.2,3.2-4.2c1.7,0,3.2,1.9,3.2,4.2l0,0V511.8L1474.8,511.8z
	 M1479.7,511.8h-2v-12l0,0c0-2.4,0.4-4.3,0.9-4.3c0.6,0,0.9,1.9,0.9,4.3l0,0L1479.7,511.8L1479.7,511.8z"/>
</svg>
