<?xml version="1.0" encoding="utf-8"?>
<!-- Generator: Adobe Illustrator 19.0.0, SVG Export Plug-In . SVG Version: 6.00 Build 0)  -->
<svg version="1.1" id="Слой_2" xmlns="http://www.w3.org/2000/svg" xmlns:xlink="http://www.w3.org/1999/xlink" x="0px" y="0px"
	 viewBox="20 58 1000 748.8" style="enable-background:new 20 58 1000 748.8;" xml:space="preserve">
<style type="text/css">
	.st0{fill:#FFFFFF;}
</style>
<path class="st0" d="M1047.7,710.6H883.5l-1.6-53.5h5.9v-9.3h-6.2l-2.3-75.2h5.1v-7.1H879l-2.6-85.9h4.2v-5.4h-4.3l-0.7-24.3v-0.1
	h5.1v-2.4h-4.9c0-0.1,0-0.1,0-0.2c0-9.7-5.7-17.6-12.9-18.4c0-0.2,0-0.6,0-0.7c0-9.3-0.6-16.8-1.3-16.8c-0.6,0-1.3,7.5-1.3,16.8
	c0,0.2,0,0.6,0,0.7c-7.1,0.9-12.7,8.8-12.7,18.4c0,0.1,0,0.1,0,0.2h-4.9v2.2h5.1c0,0.1,0,0.1,0,0.1l-0.7,24.3h-4.3v5.4h4.2
	l-2.6,85.9H839v7.1h5.1l-2.3,75.2h-6.2v9.3h5.9l-1.6,53.5h-28.3V477.3h-0.7v-44h4.3l-6.1-10.4l-6.1,10.4h3.9v44h-12.5v-72.9h3.6
	l-6.1-10.4l-6.1,10.4h3.2v72.9h-26.4v-32h3.3l-6.1-10.4l-6.1,10.4h3.3v32h-9v-14.5h-2.2v-38.7h3l-6.1-10.4l-6.1,10.4h3v38.7h-18.4
	v-53.5h-3.6c0.2-2.3,0.4-4.6,0.4-6.8c0-23-29.4-40.4-39.4-45.7c0-0.3,0-0.6,0-0.9c0-18-1.3-32.5-2.7-32.5c-1.5,0-2.7,14.6-2.7,32.5
	c0,0.1,0,0.2,0,0.3c-8.1,4.2-36.7,20.2-40.1,42v-18.3c5.9-17.5,9.1-36.5,9.1-56.6c0-47.4-40.6-85.5-77.1-110.3l3.2-6.5
	c0,0-4.3-3.9-10.6-5.4c-6.3-1.5-24.5-15.9-31.3-22.6c-4.6-4.6-11-13.4-14.6-18.6c1.3-0.9,2.3-2.3,2.3-3.9c0-2.3-2-4.3-4.6-4.8v-2.2
	c3.5-0.7,6-3.6,6-8.3c0-3.6-3.6-12.9-5.9-18.4c1.9-0.9,3.2-2.9,3.2-5.4s-1.3-4.6-3.3-5.5V89.3h-3.6v22.5c-1.9,0.9-3.2,2.9-3.2,5.4
	s1.3,4.5,3.2,5.4v0.2c-2.3,5.5-5.8,14.6-5.8,18.4c0,4.6,2.4,7.4,5.8,8.1v2.4c-2.6,0.6-4.5,2.5-4.5,4.8c0,1.6,0.9,2.9,2.3,3.9
	c-3.6,5.1-10,13.9-14.7,18.6c-6.7,6.7-25.1,21.2-31.3,22.6c-6.2,1.4-10.6,5.4-10.6,5.4l3.2,6.5c-36.5,24.8-77.1,62.9-77.1,110.3
	c0,19.9,3.2,39,9.1,56.5v18.4c-3.5-21.8-32-37.8-40.1-42c0-0.1,0-0.2,0-0.3c0-18-1.3-32.5-2.7-32.5s-2.7,14.6-2.7,32.5
	c0,0.3,0,0.6,0,0.9c-10,5.2-39.4,22.6-39.4,45.7c0,2.3,0.1,4.6,0.4,6.8h-3.2V463h-18.4v-38.7h2.9l-6.1-10.4l-6.1,10.4h2.9V463h-2.4
	v14.5h-9v-32h3.3l-6.1-10.4l-6.1,10.4h3.3v32h-26.4v-72.9h3.2l-6.1-10.4l-6.1,10.4h3.6v72.9h-12.7v-44h3.9l-6.1-10.4l-6.1,10.4h4.3
	v44h-0.7v233.3h-28.3l-1.6-53.5h5.9V648h-5.8l-2.3-75.2h5.1v-7.1h-5.4l-2.5-85.9h4.2v-5.4h-4.4l-0.7-24.3V450h5.1v-2.3H168
	c0-0.1,0-0.1,0-0.2c0-9.6-5.5-17.5-12.7-18.4c0-0.2,0-0.6,0-0.7c0-9.3-0.6-16.8-1.3-16.8c-0.6,0-1.3,7.5-1.3,16.8c0,0.2,0,0.6,0,0.7
	c-7.2,0.7-12.9,8.7-12.9,18.4c0,0.1,0,0.1,0,0.2H135v2.2h5.1c0,0.1,0,0.1,0,0.1l-0.7,24.3h-4.3v5.4h4.2l-2.6,85.9h-5.4v7.1h5.1
	l-2.3,75.2h-6.2v9.3h5.9l-1.6,53.5H-32 M129.6,710.8h-9.8v96.1h372.4h37.2h372.4v-96.3H892 M143.4,470.8h-1.9v-12l0,0
	c0-2.4,0.4-4.3,0.9-4.3c0.6,0,0.9,1.9,0.9,4.3l0,0L143.4,470.8L143.4,470.8z M152.8,470.8h-6.5v-12l0,0c0.1-2.3,1.5-4.2,3.2-4.2
	s3.2,1.9,3.2,4.2l0,0L152.8,470.8L152.8,470.8z M162.5,470.8h-6.4v-12l0,0c0.1-2.3,1.5-4.2,3.2-4.2c1.8,0,3.2,1.9,3.2,4.2l0,0V470.8
	L162.5,470.8z M167.4,470.8h-2v-12l0,0c0-2.4,0.4-4.3,0.9-4.3c0.6,0,0.9,1.9,0.9,4.3l0,0L167.4,470.8L167.4,470.8z M260.6,714.1
	h-42.9v-63.2l0,0c0.6-15.3,21.4-27.5,21.4-27.5s20.7,12.3,21.4,27.5l0,0L260.6,714.1L260.6,714.1z M260.6,598.6h-42.9v-63.2l0,0
	c0.6-15.3,21.4-27.5,21.4-27.5s20.7,12.3,21.4,27.5l0,0L260.6,598.6L260.6,598.6z M325.6,442.3L325.6,442.3c0-0.1,0-0.1,0-0.2
	c0-5.1,11.9-9.3,11.9-9.3s11.9,4.1,11.9,9.3c0,0.1,0,0.1,0,0.2l0,0v22h-24L325.6,442.3L325.6,442.3z M300.9,442.3L300.9,442.3
	c0-0.1,0-0.1,0-0.2c0-5.1,7.8-9.1,7.8-9.1s7.8,4.1,7.8,9.1c0,0.1,0,0.1,0,0.2l0,0v21.8H301L300.9,442.3L300.9,442.3z M359.5,713.8
	h-61.4v-62.9l0,0c0.9-15.2,30.6-27.4,30.6-27.4s29.7,12.3,30.7,27.4l0,0L359.5,713.8L359.5,713.8z M359.5,598.3h-61.4v-62.9l0,0
	c0.9-15.2,30.6-27.4,30.6-27.4s29.7,12.3,30.7,27.4l0,0L359.5,598.3L359.5,598.3z M374.3,442.3v21.8h-15.5v-21.8l0,0
	c0-0.1,0-0.1,0-0.2c0-5.1,7.8-9.1,7.8-9.1s7.8,4.1,7.8,9.1C374.3,442.3,374.3,442.3,374.3,442.3L374.3,442.3z M581.2,552.5v158h-143
	v-158l0,0c0-33.8,71.5-61.2,71.5-61.2S581.2,518.6,581.2,552.5L581.2,552.5z M699.4,442.3L699.4,442.3c0-0.1,0-0.1,0-0.2
	c0-5.1,7.8-9.1,7.8-9.1s7.8,4.1,7.8,9.1c0,0.1,0,0.1,0,0.2l0,0v21.8h-15.5v-21.8H699.4z M666.3,442.3L666.3,442.3c0-0.1,0-0.1,0-0.2
	c0-5.1,11.9-9.3,11.9-9.3s11.9,4.1,11.9,9.3c0,0.1,0,0.1,0,0.2l0,0v22h-24L666.3,442.3L666.3,442.3z M641.6,442.3L641.6,442.3
	c0-0.1,0-0.1,0-0.2c0-5.1,7.8-9.1,7.8-9.1s7.8,4.1,7.8,9.1c0,0.1,0,0.1,0,0.2l0,0v21.8h-15.5v-21.8H641.6z M717.8,713.8h-61.4v-62.9
	l0,0c0.9-15.2,30.6-27.4,30.6-27.4s29.7,12.3,30.6,27.4l0,0v62.9H717.8z M717.8,598.3h-61.4v-62.9l0,0c0.9-15.2,30.6-27.4,30.6-27.4
	s29.7,12.3,30.6,27.4l0,0v62.9H717.8z M798.1,714.1h-42.9v-63.2l0,0c0.6-15.3,21.4-27.5,21.4-27.5s20.7,12.3,21.4,27.5l0,0
	L798.1,714.1L798.1,714.1z M798.1,598.6h-42.9v-63.2l0,0c0.6-15.3,21.4-27.5,21.4-27.5s20.7,12.3,21.4,27.5l0,0L798.1,598.6
	L798.1,598.6z M850.3,470.8h-2v-12l0,0c0-2.4,0.4-4.3,0.9-4.3s0.9,1.9,0.9,4.3l0,0L850.3,470.8L850.3,470.8z M859.8,470.8h-6.5v-12
	l0,0c0.1-2.3,1.5-4.2,3.2-4.2s3.2,1.9,3.2,4.2l0,0v12H859.8z M869.6,470.8h-6.5v-12l0,0c0.1-2.3,1.5-4.2,3.2-4.2s3.2,1.9,3.2,4.2
	l0,0v12H869.6z M874.5,470.8h-2v-12l0,0c0-2.4,0.4-4.3,0.9-4.3c0.6,0,0.9,1.9,0.9,4.3l0,0L874.5,470.8L874.5,470.8z"/>
</svg>
